PathFileType	4	(X/Y/Z)	pose2sim_0-881.trc
DataRate	CameraRate	NumFrames	NumMarkers	Units	OrigDataRate	OrigDataStartFrame	OrigNumFrames
50	50	8	22	m	50	661	882
Frame#	Time	Hip			RHip			RKnee			RAnkle			RBigToe			RSmallToe			RHeel			LHip			LKnee			LAnkle			LBigToe			LSmallToe			LHeel			Neck			Head			Nose			RShoulder			RElbow			RWrist			LShoulder			LElbow			LWrist			
		X1	Y1	Z1	X2	Y2	Z2	X3	Y3	Z3	X4	Y4	Z4	X5	Y5	Z5	X6	Y6	Z6	X7	Y7	Z7	X8	Y8	Z8	X9	Y9	Z9	X10	Y10	Z10	X11	Y11	Z11	X12	Y12	Z12	X13	Y13	Z13	X14	Y14	Z14	X15	Y15	Z15	X16	Y16	Z16	X17	Y17	Z17	X18	Y18	Z18	X19	Y19	Z19	X20	Y20	Z20	X21	Y21	Z21	X22	Y22	Z22	
661	13.22	0.1346683916587496	0.9798801961468014	-0.03482927913451565	0.03219078537197104	0.966054469094223	-0.026347270868763865	0.015717124356631793	0.5193328849467141	-0.06004369928880431	0.0020199030207746238	0.08907802594005358	-0.09066157731624407	0.008282533582164265	0.0365933911523431	0.10502922780211478	-0.04314997100313928	0.036064061650956734	0.056503664930796914	0.005430065469980015	0.039221282461833165	-0.12894664813223125	0.24127555976587728	0.9632253284233371	-0.04568586858889283	0.23957748922925573	0.5166323860025774	-0.09804957564841525	0.2449647657707746	0.08377288264618424	-0.11104031339084187	0.27521862540536546	0.03636817926872217	0.07636570441623809	0.3167289289672	0.03884322965124292	0.012681179879975945	0.23167214322994828	0.038685487361950016	-0.13894560713805704	0.1483706171860976	1.577354583356326	-0.04220215459222548	0.14838262688806186	1.8244998609952694	0.002232685339819941	0.1464372065670435	1.6888060414258423	0.11978011032761827	-0.006982782569236496	1.4660016627607095	-0.04083376551209721	-0.06883201366125473	1.188130687458736	-0.015745788806967184	-0.1549169329921247	0.9532349699290914	0.05283616403927422	0.31328095142426354	1.4681720048127023	-0.07820324237286842	0.3841032484475674	1.1972070985183658	-0.0506883107343358	0.47647390976421833	0.9660306428703097	0.005007864705031982
662	13.24	0.1368951046450274	0.9765457935298492	-0.032543044610461966	0.0325311360014334	0.9640292575060452	-0.028284246752803624	0.015875370687532604	0.5217572097381975	-0.058554684477773955	-0.0005655646248863797	0.09149757246188013	-0.08821023786320097	0.006314744987721003	0.03892434000046767	0.0985791103593053	-0.046842441849357014	0.0381907188636575	0.05578857052925419	0.0037697802237385706	0.04301492630455576	-0.12624019532877578	0.2410881442019659	0.9609246711878549	-0.045007646129552825	0.23982682621380083	0.5175179533594848	-0.09681844794442857	0.24549599864589008	0.0845323787660132	-0.10918792881509932	0.27447853699689867	0.03586361127376357	0.0638949336897213	0.3123384639587612	0.0367995670544315	0.009625718482254972	0.23178827174224131	0.03784180474162185	-0.138891643059102	0.14447075920971186	1.5770556262175262	-0.047708895359812105	0.14710392641896658	1.823907567330472	-0.0026315948321657748	0.13747529912621556	1.692107625828815	0.10073669331872155	-0.007159531024788968	1.4662690450466969	-0.04268210649617365	-0.07066180632742336	1.1877106434341789	-0.014465981398123254	-0.1606446489442363	0.956550026731461	0.06379349863964125	0.31342738037157575	1.4683133780688356	-0.08491381587828223	0.3847291137214287	1.1964551703928732	-0.049945279710195904	0.47798300311325037	0.9669406985894067	0.012842702812634908
663	13.26	0.13514706142935518	0.9766958559644466	-0.03949819620994467	0.034088801808154115	0.9628054270544115	-0.029766735904372617	0.01475981763663366	0.5193943574200409	-0.05957370301519032	-0.0004961937608484103	0.09055750385694254	-0.09036418910832436	0.009388729555322974	0.03796468486477314	0.10094732789154424	-0.04515738785585111	0.03728372763337811	0.0559117194076411	0.003968606981379274	0.04353190770116707	-0.12989365346800208	0.2409262987743508	0.9613552578189067	-0.05178393563744916	0.2386254322920784	0.5194536854636574	-0.10041748206590694	0.24586471139685584	0.08508120676836924	-0.10882954858596562	0.27329480173638415	0.03461257975240932	0.06789141695407659	0.31328137958757896	0.03846865636545243	0.010283283623251227	0.23156838165642135	0.03685076480683352	-0.14133310269212296	0.14739998293820797	1.5754736271027605	-0.05139859627685863	0.14837209574866614	1.8197686461637057	-0.009235156372194993	0.13931912361754983	1.6886208463289396	0.10302656065352916	-0.008634918794474358	1.4686953281766417	-0.049099811385675984	-0.07000904766719414	1.1902501264605747	-0.009470133585537405	-0.16106451399675875	0.9616256582495665	0.07865653241338721	0.3132346008870969	1.4679080649464513	-0.08889991729523036	0.3843632655813337	1.19498290208326	-0.05287718111828244	0.4799969594927498	0.9710706009665742	0.02480249267107596
664	13.28	0.13443361508145094	0.9820819094334549	-0.03916060145884101	0.0332443442445972	0.9684529934694188	-0.022412921288312123	0.015644958160239416	0.5147868184472678	-0.06299775878821721	0.0034271054347402956	0.08933211207998758	-0.08820181696363724	0.011766275223386687	0.04424103483006769	0.10552702731234365	-0.03770895588315804	0.04093464488369237	0.052707960405517104	0.012956353914977996	0.0463890800024053	-0.1202182382373288	0.23673644012545758	0.965469171691018	-0.037378116256139814	0.2403348907580573	0.5155580627204717	-0.09825479955446305	0.2449097685698568	0.08543947546128539	-0.11071447008853005	0.2768325376035627	0.03993235540882689	0.08170079341459242	0.3147595270379986	0.03900046804792546	0.026834567310788406	0.22992390795038714	0.04116522316325614	-0.14143651169463342	0.14747845190930248	1.5737911632045414	-0.05307574432926412	0.14955094839221586	1.8184600362293943	-0.00896666281973042	0.14653986675127495	1.6878280076584817	0.1091325011812384	-0.012980304820113786	1.466991504242773	-0.045855531329105914	-0.06780345330569752	1.1880006210586744	-0.0028826191499769878	-0.15455691003220687	0.9617364004612635	0.10086917332982585	0.31374206193704907	1.4665565623084535	-0.09249570364493602	0.38527042620993746	1.197820642488105	-0.049133967884486374	0.48521146733215087	0.9750183872057101	0.039511998713224715
665	13.3	0.13291649343808434	0.9812242051469076	-0.04108251581444333	0.02936004502450337	0.9700008828153851	-0.030904001592409042	0.014210477746642757	0.5211757838187848	-0.061965560196381414	0.0017535117103265564	0.0891445395502627	-0.09316290897676084	0.013929335041419627	0.034203351451204685	0.09602970619726658	-0.043036875230717045	0.03507408699736505	0.05382682914007653	0.00624203227068931	0.043963450782701224	-0.1313728561148583	0.23792529687745212	0.9653351812022417	-0.04813109867804032	0.24080654670775828	0.5212280983775964	-0.10056234605852356	0.24502966110016053	0.08652527230347001	-0.11239388036964232	0.2775759252048413	0.040477143824787204	0.06785422599956464	0.31527310782278883	0.0413435311591245	0.011974358663205332	0.23270185865259638	0.04156266041518676	-0.14660065131884858	0.14910213538545516	1.5773172979364058	-0.05893177063662179	0.1474136795251526	1.820432544418869	-0.016366297010712755	0.14334204159439418	1.6917270181706097	0.09831296784801037	-0.006927611775501982	1.4685956627703203	-0.0470303185809605	-0.0680650773029124	1.1930776857569618	-0.007397953673232608	-0.15728148695801453	0.9728428466390106	0.10317731447241626	0.31374602454681244	1.4678931277821998	-0.09458476318320584	0.3806017962050352	1.1969900055611358	-0.054680561007081865	0.48482481007775596	0.9794861895855718	0.048622060496344446
666	13.32	0.13324839312060743	0.9779125432652679	-0.04422182742915328	0.03072888581344019	0.9655297247465362	-0.04003344738352689	0.014583818681824517	0.5191321721042294	-0.06478571440850925	0.0022040172954203015	0.08990491649708547	-0.0963946955933332	0.009665019621935677	0.03926085616656853	0.10161981917872301	-0.044440591207133485	0.040011538207313554	0.05834028288826864	0.006981651043344414	0.044371366680968576	-0.13018469542375022	0.23698315489837343	0.9610689610331025	-0.05676145847137353	0.24076828164968261	0.5178914381519704	-0.10154010453193643	0.24648082188148943	0.08427062927258668	-0.11175122593571317	0.2760129884229686	0.03822526743625263	0.06782525629335018	0.31427290629396865	0.04083661168525213	0.01035552134966122	0.23267899537801065	0.03930113542904511	-0.14489776463323426	0.14826242102140183	1.5760512050167548	-0.05784662552309714	0.14651790013474994	1.8186453189545866	-0.015320286679310059	0.14208268108382693	1.689624723596075	0.09916453630056828	-0.008526390892180945	1.4684887443000754	-0.053617337339855076	-0.07113700154701118	1.192202905479707	-0.009925647346062631	-0.1571008955506536	0.9770792025863412	0.10811273617470948	0.3125598204182211	1.4652974339985283	-0.10810290259250156	0.38026921345907344	1.1970799265280962	-0.05958071808596363	0.488190520901911	0.9870949259230478	0.0522280990123338
667	13.34	0.13178154561958494	0.9795487755340859	-0.048559010451471	0.031049621815856042	0.9671801873775202	-0.039333462736305315	0.014756391954647527	0.5208877039971315	-0.0672817143377252	0.00415968849348689	0.08888797521086769	-0.09387382547009276	0.012332708589620075	0.03822985102558578	0.10154150446764594	-0.041563411255005046	0.03761874806243954	0.05696542174098459	0.0067874650950608085	0.04508526956930226	-0.13291133903822064	0.23854398341585506	0.9628491051528649	-0.05627159221254542	0.24186689251095275	0.5180469012672686	-0.10601422048195014	0.24494338277229852	0.08497292463535785	-0.11618954795095804	0.2714684706716618	0.039165312216283055	0.06352318510677926	0.3126238570446712	0.040066979949883307	0.007275273276091103	0.23284660295031323	0.040100724021433345	-0.14701707479139278	0.14672821891506013	1.577119010014905	-0.06071667908159204	0.14500867554841732	1.818216264013046	-0.018632050838948647	0.14245211733263302	1.689169578847199	0.09774319194100431	-0.007094623050242088	1.4692962002217986	-0.05596392542739897	-0.07079760326527403	1.1951185555624935	-0.009597663906628823	-0.15661661652228176	0.9867399002279594	0.12841715052932953	0.3125967991506916	1.4660788980625206	-0.10804121750683537	0.3804128848397344	1.200824770966553	-0.059765106035855685	0.4902512677195177	0.997744255941604	0.0659472866127405
668	13.36	0.13360842219216232	0.9787989226403885	-0.03932515790567481	0.031145158331562506	0.9620489465001443	-0.02551687967675717	0.014671720056127173	0.515643838684205	-0.06671807084207475	0.002646685797834203	0.08909315832629788	-0.08982042895638942	0.011700390749535718	0.0447290604929719	0.09555515345511223	-0.038535961683077366	0.04297244303910046	0.05406756610855338	0.010235294217812767	0.048197687582815965	-0.11881781991870012	0.23706020314135684	0.9630001961023339	-0.04022072839154028	0.23843951610243938	0.5149968479859505	-0.09934439871240731	0.24453590328927619	0.08871646828427879	-0.11272967410332436	0.2810894199750534	0.04326816464396204	0.07279366705112278	0.31703011537014025	0.042809378552323106	0.016571846853117324	0.23224353949962237	0.04243904186184189	-0.13785177687759326	0.1501217950327376	1.574156898013345	-0.06688771642803716	0.14850969632602332	1.8195389574541418	-0.0196168229379811	0.1417707622780958	1.6848614480939395	0.09325942330234462	-0.012931233594307595	1.4672296145900658	-0.058265195039354845	-0.0711455408636018	1.1926495707924551	-0.002556572075803959	-0.15788048327548376	0.9967850185562376	0.15154201057972025	0.31142951020114357	1.4658598015249158	-0.10630827626223918	0.38126688332594644	1.2020968921856967	-0.05608201673601236	0.4910278450245723	1.009745444580704	0.0843476589904632
